<svg version="1.0" xmlns="http://www.w3.org/2000/svg"
 width="41.000000pt" height="46.000000pt" viewBox="0 0 41.000000 46.000000"
 preserveAspectRatio="xMidYMid meet">

<style>
	g {
		fill: #000;
	}
	@media (prefers-color-scheme: dark) {
		g {
		fill: #fff;
		}
	}
</style>

<g transform="translate(0.000000,46.000000) scale(0.100000,-0.100000)" stroke="none">
<path d="M105 397 l-90 -53 0 -114 0 -115 92 -53 93 -54 92 54 93 53 0 115 0
114 -90 53 c-50 29 -92 53 -95 53 -3 0 -45 -24 -95 -53z m95 -117 c6 0 10 32
10 71 l0 71 58 -32 c102 -58 101 -51 12 -103 l-80 -46 -80 46 c-44 26 -78 48
-77 49 1 1 34 21 72 43 l70 41 3 -70 c2 -38 7 -70 12 -70z m-85 -12 l75 -43 0
-93 0 -94 -57 32 c-102 57 -100 53 -43 84 27 15 52 31 55 36 11 18 -19 10 -60
-15 -22 -13 -43 -25 -47 -25 -5 0 -8 36 -8 80 0 44 2 80 5 80 3 0 39 -19 80
-42z m255 -38 c0 -44 -3 -80 -6 -80 -3 0 -25 12 -50 26 -24 14 -49 24 -56 22
-7 -3 13 -20 44 -38 64 -38 66 -33 -34 -90 l-58 -32 0 94 0 93 73 42 c39 23
75 42 80 42 4 1 7 -35 7 -79z"/>
</g>
</svg>
